SRRun01_grf
version=1
nRows=24
nColumns=19
inDegrees=no
endheader
time	ground_force_r_vx	ground_force_r_vy	ground_force_r_vz	ground_force_r_px	ground_force_r_py	ground_force_r_pz	ground_force_r_mx	ground_force_r_my	ground_force_r_mz	ground_force_l_vx	ground_force_l_vy	ground_force_l_vz	ground_force_l_px	ground_force_l_py	ground_force_l_pz	ground_force_l_mx	ground_force_l_my	ground_force_l_mz
    144.99800000	   -124.35396195	    516.23280993	   -128.83976319	      1.27937911	      0.00000000	     -0.26438608	      0.00000628	     20.97858031	      0.00003103	      0.00000000	      0.00000000	      0.00000000	      0.00000000	      0.00000000	      0.00000000	      0.00000000	      0.00000000	      0.00000000
    144.99900000	   -132.35897243	    551.21595335	   -139.68746112	      1.28150411	      0.00000000	     -0.26585648	      0.00000678	     33.24569068	      0.00003509	      0.00000000	      0.00000000	      0.00000000	      0.00000000	      0.00000000	      0.00000000	      0.00000000	      0.00000000	      0.00000000
    145.00000000	   -135.33474095	    585.64024706	   -145.95018928	      1.28352713	      0.00000000	     -0.26687386	      0.00000725	     44.51477566	      0.00003930	      0.00000000	      0.00000000	      0.00000000	      0.00000000	      0.00000000	      0.00000000	      0.00000000	      0.00000000	      0.00000000
    145.00100000	   -133.00766987	    619.08502556	   -146.83608396	      1.28521888	      0.00000000	     -0.26747750	      0.00000770	     53.79697990	      0.00004356	      0.00000000	      0.00000000	      0.00000000	      0.00000000	      0.00000000	      0.00000000	      0.00000000	      0.00000000	      0.00000000
    145.00200000	   -125.53694334	    651.09930621	   -141.82352983	      1.28638985	      0.00000000	     -0.26771006	      0.00000809	     60.15679576	      0.00004773	      0.00000000	      0.00000000	      0.00000000	      0.00000000	      0.00000000	      0.00000000	      0.00000000	      0.00000000	      0.00000000
    145.00300000	   -113.52411429	    681.24509635	   -130.71649180	      1.28689502	      0.00000000	     -0.26762081	      0.00000842	     62.80212834	      0.00005166	      0.00000000	      0.00000000	      0.00000000	      0.00000000	      0.00000000	      0.00000000	      0.00000000	      0.00000000	      0.00000000
    145.00400000	    -97.98006279	    709.13991727	   -113.67926014	      1.28664067	      0.00000000	     -0.26726721	      0.00000869	     61.17088330	      0.00005521	      0.00000000	      0.00000000	      0.00000000	      0.00000000	      0.00000000	      0.00000000	      0.00000000	      0.00000000	      0.00000000
    145.00500000	    -80.25052889	    734.49261305	    -91.24685387	      1.28559212	      0.00000000	     -0.26671454	      0.00000890	     55.00447274	      0.00005825	      0.00000000	      0.00000000	      0.00000000	      0.00000000	      0.00000000	      0.00000000	      0.00000000	      0.00000000	      0.00000000
    145.00600000	    -61.90629111	    757.12823523	    -64.30925479	      1.28377998	      0.00000000	     -0.26603352	      0.00000906	     44.39914662	      0.00006064	      0.00000000	      0.00000000	      0.00000000	      0.00000000	      0.00000000	      0.00000000	      0.00000000	      0.00000000	      0.00000000
    145.00700000	    -44.60833274	    777.00006308	    -34.06980395	      1.28130111	      0.00000000	     -0.26529666	      0.00000918	     29.82768599	      0.00006232	      0.00000000	      0.00000000	      0.00000000	      0.00000000	      0.00000000	      0.00000000	      0.00000000	      0.00000000	      0.00000000
    145.00800000	    -29.96132163	    794.18899973	     -1.98018708	      1.27831171	      0.00000000	     -0.26457380	      0.00000928	     12.12658860	      0.00006322	      0.00000000	      0.00000000	      0.00000000	      0.00000000	      0.00000000	      0.00000000	      0.00000000	      0.00000000	      0.00000000
    145.00900000	    -19.37014430	    808.89227986	     30.34373899	      1.27501160	      0.00000000	     -0.26392778	      0.00000938	     -7.55270621	      0.00006335	      0.00000000	      0.00000000	      0.00000000	      0.00000000	      0.00000000	      0.00000000	      0.00000000	      0.00000000	      0.00000000
    145.01000000	    -13.91404535	    821.40439231	     61.21961018	      1.27162152	      0.00000000	     -0.26341103	      0.00000949	    -27.82604727	      0.00006277	      0.00000000	      0.00000000	      0.00000000	      0.00000000	      0.00000000	      0.00000000	      0.00000000	      0.00000000	      0.00000000
    145.01100000	    -14.25107138	    832.09332670	     89.00315947	      1.26835706	      0.00000000	     -0.26306331	      0.00000963	    -47.18585905	      0.00006161	      0.00000000	      0.00000000	      0.00000000	      0.00000000	      0.00000000	      0.00000000	      0.00000000	      0.00000000	      0.00000000
    145.01200000	    -20.56213450	    841.37486637	    112.19284676	      1.26540364	      0.00000000	     -0.26291100	      0.00000980	    -64.12788932	      0.00006007	      0.00000000	      0.00000000	      0.00000000	      0.00000000	      0.00000000	      0.00000000	      0.00000000	      0.00000000	      0.00000000
    145.01300000	    -32.53959075	    849.68697679	    129.52758159	      1.26289668	      0.00000000	     -0.26296760	      0.00001000	    -77.28366685	      0.00005837	      0.00000000	      0.00000000	      0.00000000	      0.00000000	      0.00000000	      0.00000000	      0.00000000	      0.00000000	      0.00000000
    145.01400000	    -49.42048026	    857.46566563	    140.07081113	      1.26091011	      0.00000000	     -0.26323510	      0.00001023	    -85.54594830	      0.00005681	      0.00000000	      0.00000000	      0.00000000	      0.00000000	      0.00000000	      0.00000000	      0.00000000	      0.00000000	      0.00000000
    145.01500000	    -70.06022202	    865.12314350	    143.27477243	      1.25945436	      0.00000000	     -0.26370561	      0.00001048	    -88.17470066	      0.00005565	      0.00000000	      0.00000000	      0.00000000	      0.00000000	      0.00000000	      0.00000000	      0.00000000	      0.00000000	      0.00000000
    145.01600000	    -93.03901388	    873.02871620	    139.01980870	      1.25848346	      0.00000000	     -0.26436301	      0.00001076	    -84.87271094	      0.00005515	      0.00000000	      0.00000000	      0.00000000	      0.00000000	      0.00000000	      0.00000000	      0.00000000	      0.00000000	      0.00000000
    145.01700000	   -116.79048598	    881.49264878	    127.62544092	      1.25790892	      0.00000000	     -0.26518438	      0.00001104	    -75.82270918	      0.00005551	      0.00000000	      0.00000000	      0.00000000	      0.00000000	      0.00000000	      0.00000000	      0.00000000	      0.00000000	      0.00000000
    145.01800000	   -139.74033802	    890.75333239	    109.83211499	      1.25761736	      0.00000000	     -0.26614121	      0.00001133	    -61.68166531	      0.00005684	      0.00000000	      0.00000000	      0.00000000	      0.00000000	      0.00000000	      0.00000000	      0.00000000	      0.00000000	      0.00000000
    145.01900000	   -160.44196222	    900.96837468	     86.75475165	      1.25748811	      0.00000000	     -0.26720046	      0.00001162	    -43.53218815	      0.00005917	      0.00000000	      0.00000000	      0.00000000	      0.00000000	      0.00000000	      0.00000000	      0.00000000	      0.00000000	      0.00000000
    145.02000000	   -177.69658526	    912.21040805	     59.81116397	      1.25740791	      0.00000000	     -0.26832570	      0.00001191	    -22.79520915	      0.00006244	      0.00000000	      0.00000000	      0.00000000	      0.00000000	      0.00000000	      0.00000000	      0.00000000	      0.00000000	      0.00000000
    145.02100000	   -190.64717207	    924.46817814	     30.63012797	      1.25728052	      0.00000000	     -0.26947848	      0.00001221	     -1.11187503	      0.00006650	      0.00000000	      0.00000000	      0.00000000	      0.00000000	      0.00000000	      0.00000000	      0.00000000	      0.00000000	      0.00000000
